<svg viewBox="0 0 24 24" fill="none" xmlns="http://www.w3.org/2000/svg" id="Trash-Bin-Trash--Streamline-Solar" height="24" width="24">
  <desc>
    Trash Bin Trash Streamline Icon: https://streamlinehq.com
  </desc>
  <path d="M3 6.38597c0 -0.48445 0.34538 -0.87718 0.77143 -0.87718l2.66424 -0.00047c0.52935 -0.01526 0.99635 -0.39799 1.17647 -0.9642 0.00474 -0.01489 0.01018 -0.03325 0.02971 -0.09988l0.1148 -0.39168c0.07025 -0.24015 0.13145 -0.44938 0.2171 -0.63639 0.33834 -0.73881 0.96433 -1.25185 1.68772 -1.3832 0.1831 -0.03325 0.37703 -0.03311 0.59963 -0.03295h3.478c0.2226 -0.00016 0.4165 -0.0003 0.5996 0.03295 0.7234 0.13135 1.3494 0.64439 1.6877 1.3832 0.0857 0.18701 0.1469 0.39624 0.2171 0.63639l0.1148 0.39168c0.0195 0.06663 0.025 0.08499 0.0297 0.09988 0.1802 0.56621 0.7398 0.94941 1.2691 0.96467h2.5715c0.426 0 0.7714 0.39273 0.7714 0.87718 0 0.48446 -0.3454 0.87719 -0.7714 0.87719H3.77143C3.34538 7.26316 3 6.87043 3 6.38597Z" fill="#000000" stroke-width="1"></path>
  <path fill-rule="evenodd" clip-rule="evenodd" d="M11.5956 22.0001h0.8088c2.7827 0 4.1741 0 5.0787 -0.8859 0.9047 -0.8859 0.9972 -2.3391 1.1823 -5.2456l0.2667 -4.1879c0.1005 -1.577 0.1507 -2.36546 -0.3032 -2.86512 -0.4538 -0.49966 -1.2202 -0.49966 -2.7529 -0.49966H8.12404c-1.53277 0 -2.29916 0 -2.75299 0.49966 -0.45383 0.49966 -0.40361 1.28812 -0.30317 2.86512l0.26671 4.1879c0.18511 2.9065 0.27766 4.3597 1.1823 5.2456 0.90464 0.8859 2.296 0.8859 5.07871 0.8859Zm-1.3493 -9.8115c-0.0412 -0.4338 -0.40877 -0.7504 -0.82093 -0.707 -0.41216 0.0434 -0.71286 0.4303 -0.67165 0.8641l0.5 5.2632c0.04122 0.4338 0.40875 0.7504 0.82088 0.707 0.4122 -0.0434 0.7129 -0.4303 0.6717 -0.8641l-0.5 -5.2632Zm4.3283 -0.707c0.4122 0.0434 0.7129 0.4303 0.6717 0.8641l-0.5 5.2632c-0.0412 0.4338 -0.4088 0.7504 -0.8209 0.707 -0.4122 -0.0434 -0.7129 -0.4303 -0.6717 -0.8641l0.5 -5.2632c0.0412 -0.4338 0.4088 -0.7504 0.8209 -0.707Z" fill="#000000" stroke-width="1"></path>
</svg>